<svg version="1" xmlns="http://www.w3.org/2000/svg" width="682.667" height="682.667" viewBox="0 0 512.000000 512.000000"><path d="M233.5 45.1c-39.6 4.2-80.9 21.4-111.8 46.7-8.4 7-24.6 23.2-31.2 31.5-8.5 10.5-17.6 25-24.4 38.8-29.2 58.9-29.4 127-.6 186.9l6.5 13.5-14 52.4c-7.7 28.9-13.8 52.6-13.7 52.7.2.2 23.9-6 52.7-13.7l52.5-14 13.5 6.5c67.6 32.6 146.6 27.8 208.3-12.7 13.7-9 20.1-14.1 32.1-25.7 18.4-17.9 31.9-36.5 43.2-59.5 28.2-57.7 28.2-127.3 0-185-11.3-23-24.6-41.5-43.2-59.6-34.6-33.6-79-54.2-127.3-58.9-11.9-1.2-31-1.1-42.6.1zM335 206.5c38 38 38.5 38.5 38.5 42.5s-.5 4.5-38.5 42.5c-37.2 37.2-38.7 38.5-42.4 38.5-2.8 0-4.5-.7-6.7-2.9l-2.9-2.9v-36.5l-12.2.7c-52.2 3-87.3 16.7-117.2 45.8-5.5 5.4-10.8 9.8-11.7 9.8-.9 0-2.2-.7-2.9-1.5-1-1.2-.7-3.4 2-11.7 14.5-45.9 41.1-80.4 78.1-101.5 15.4-8.8 37.7-16.6 56.3-19.7l7.1-1.2.5-17.8.5-17.8 2.8-2.4c1.9-1.6 4-2.4 6.5-2.4 3.5 0 5.5 1.8 42.2 38.5z"/></svg>