<?xml version="1.0" encoding="UTF-8"?>
<!DOCTYPE svg PUBLIC "-//W3C//DTD SVG 1.1//EN" "http://www.w3.org/Graphics/SVG/1.1/DTD/svg11.dtd">
<!-- Creator: CorelDRAW 2020 (64 Bit) -->
<svg xmlns="http://www.w3.org/2000/svg" xml:space="preserve" width="4.4657mm" height="3.3486mm" version="1.1" style="shape-rendering:geometricPrecision; text-rendering:geometricPrecision; image-rendering:optimizeQuality; fill-rule:evenodd; clip-rule:evenodd"
viewBox="0 0 150.9 113.2"
 xmlns:xlink="http://www.w3.org/1999/xlink"
 xmlns:xodm="http://www.corel.com/coreldraw/odm/2003">
 <defs>
  <style type="text/css">
    .fil0 {fill:white}
  </style>
 </defs>
 <g id="Camada_x0020_1">
  <metadata id="CorelCorpID_0Corel-Layer"/>
  <path class="fil0" d="M92.7 6.2c0,0 0,-0 0,-0 0,-5.5 6.7,-8.2 10.5,-4.4l45.9 45.9c2.4,2.4 2.4,6.3 0,8.7l-45.9 45.9c-3.8,3.8 -10.5,1.2 -10.5,-4.4 0,-0 0,-0 0,-0l0 -20.7c-38.7,0 -67,11 -88.1,35 -1.9,2.1 -5.3,0.3 -4.6,-2.4 10.9,-39.3 37.4,-75.9 92.6,-83.8l0 -19.8 0 0z"/>
 </g>
</svg>
