<svg xmlns="http://www.w3.org/2000/svg" xml:space="preserve" width="161.285mm" height="184.236mm" version="1.1" style="shape-rendering:geometricPrecision; text-rendering:geometricPrecision; image-rendering:optimizeQuality; fill-rule:evenodd; clip-rule:evenodd"
viewBox="0 0 161274.8 184224.2">
  <path fill="white" d="M161266 70941.7c-4.4,-6281.7 -5266.7,-11369.7 -11761.7,-11369.7 -6490.7,-4.4 -11753,5092.4 -11753,11374l8.8 47617.5c0,6285.9 5257.9,11365.3 11757.3,11365.3 6495.1,0 11752.9,-5079.4 11757.3,-11374l-8.7 -47613.1zm-133186 -9209l21.8 73789.4c-8.7,6712.9 5606.4,12132 12545.8,12132l8542.5 4.3 8.7 25196.2c0,6268.6 5271,11369.7 11752.9,11369.7 6495.1,0 11761.7,-5105.5 11761.7,-11378.4l-4.4 -25191.8 15874 0 4.4 25191.8c0,6268.6 5275.3,11374 11757.3,11365.3 6495,4.4 11761.6,-5101.1 11761.6,-11374l-8.7 -25187.5 8577.3 -4.4c6917.6,0 12550.2,-5423.4 12550.2,-12136.3l-13.1 -73793.7 -105132.2 17.4zm76664.5 -22517.1c-2448.1,4.4 -4443.3,-1916.7 -4443.3,-4295.2 8.7,-2352.3 1990.8,-4290.8 4447.6,-4299.5 2435.1,4.4 4430.3,1947.2 4430.3,4303.9 4.3,2369.7 -1986.5,4290.8 -4434.6,4290.8l0 0zm-48231.7 8.7c-2439.4,-4.3 -4425.9,-1921.1 -4425.9,-4290.8 0,-2361 1982.1,-4299.5 4430.2,-4299.5 2456.9,0 4443.3,1938.5 4447.7,4299.5 0,2365.4 -1990.8,4290.8 -4452,4290.8l0 0zm50074.3 -22395.1l8207.1 -14493c435.6,-758.1 148.1,-1720.7 -644.8,-2147.7 -801.5,-409.5 -1790.4,-130.7 -2213,631.7l-8289.8 14641.1c-6978.6,-3001.4 -14780.5,-4682.9 -23039.9,-4674.2 -8237.6,-8.7 -16043.9,1668.4 -22987.6,4652.4l-8298.5 -14606.2c-435.7,-766.8 -1424.5,-1045.5 -2208.7,-627.4 -801.5,413.9 -1093.3,1380.9 -649.1,2139l8211.5 14480c-16135.3,8045.9 -27034.5,23366.6 -27025.8,40956.8l105925 -13.1c4.3,-17586 -10877.4,-32871.8 -26986.5,-40939.4l0 0zm-94829.8 42760.3c-6490.7,-4.3 -11752.9,5092.4 -11757.3,11369.7l8.7 47613.1c4.4,6294.7 5266.7,11374 11761.7,11374 6499.5,0 11761.7,-5083.7 11753,-11374l4.3 -47621.8c-4.3,-6272.9 -5275.4,-11365.3 -11770.4,-11361l0 0z"/>
</svg>
