<?xml version="1.0" encoding="UTF-8"?>
<!DOCTYPE svg PUBLIC "-//W3C//DTD SVG 1.1//EN" "http://www.w3.org/Graphics/SVG/1.1/DTD/svg11.dtd">
<!-- Creator: CorelDRAW 2020 (64 Bit) -->
<svg xmlns="http://www.w3.org/2000/svg" xml:space="preserve" width="205.915mm" height="219.539mm" version="1.1" style="shape-rendering:geometricPrecision; text-rendering:geometricPrecision; image-rendering:optimizeQuality; fill-rule:evenodd; clip-rule:evenodd"
viewBox="0 0 47755 50914.8"
 xmlns:xlink="http://www.w3.org/1999/xlink"
 xmlns:xodm="http://www.corel.com/coreldraw/odm/2003">
 <defs>
  <style type="text/css">
   <![CDATA[
    .fil3 {fill:#FEFEFE}
    .fil0 {fill:#373435}
    .fil5 {fill:#ED3237}
    .fil1 {fill:#D2E28B}
    .fil2 {fill:#00A859}
    .fil6 {fill:#00A859}
    .fil4 {fill:#ED3237;fill-rule:nonzero}
   ]]>
  </style>
 </defs>
 <g id="Camada_x0020_1">
  <metadata id="CorelCorpID_0Corel-Layer"/>
  <path class="fil0" d="M21708.5 3553.4c-3508.4,3915.9 -2927.2,8527.8 -487.2,13456.3 -201.2,127.9 -402.3,255.9 -603.5,383.8 -2648.9,-6134.5 -2322.2,-10815.9 469.8,-14293.2 207,151 414,302 620.9,453.1z"/>
  <circle class="fil0" cx="22458.1" cy="1912.5" r="1912.5"/>
  <circle class="fil1" cx="22458.1" cy="1912.5" r="1255.7"/>
  <circle class="fil2" cx="22284.3" cy="1122.9" r="434"/>
  <path class="fil0" d="M31431.5 17600.4c1259.9,-3444.4 -2423.3,-12059.2 2578.3,-10574.9 7087.1,2103.2 9417.1,8103.3 8229.3,11441.9 -1262.4,3548.4 -4094.9,5575.9 -8041,5756.4l-2766.6 -6623.4z"/>
  <path class="fil0" d="M27696.9 44061.1c973.6,676.7 2494.7,2898.1 3934.5,4098.5 3650.2,-1528.4 5715.3,-4143.9 4905.3,-4658.3 -1246.9,-792 -3685.7,3684.9 -4676.6,3952.8 -680.6,184 -1216.6,247.7 -3405.8,-4156.1 -252.5,254.4 -504.9,508.8 -757.4,763.2z"/>
  <path class="fil0" d="M20959.8 40113c-3472.5,2598.8 -7122,3638.4 -11018.4,2593 -121.7,-1228.5 -1623.3,-6601.9 -3051.3,-5693.5 -878.8,559.1 2737.3,3871.3 2086.9,4388.4 -688.6,653.7 -5488.4,-5294.6 -6244.7,-3155.8 -525.2,1485.2 6093.1,3662.4 5642.2,4553.7 -381.5,754.3 -5605,1797.6 -4879.1,2917.6 810.8,1250.9 3408,-1513 5354.4,-2662.3 3758.1,800.3 7762.1,993.8 12709,-2172.4 -256.2,-256.2 -343,-512.5 -599.2,-768.7z"/>
  <path class="fil0" d="M29437.7 38921.2c3984.9,1712.6 7776.4,1867.8 11319.2,-61.7 -169.6,-1222.8 30.7,-6798.5 1631.8,-6250 985.3,337.5 -1753.7,4405.1 -1000.3,4755.3 822.6,474.1 4094.6,-6433.4 5331.1,-4531.5 858.6,1320.8 -5065,4988.5 -4417.8,5749.3 547.6,643.8 5870.2,433.8 5427,1692.8 -495,1406.1 -3667.7,-672 -5829.2,-1333.2 -3465.8,1658.9 -7313,2785.4 -12864.1,866.9 189,-309.2 213.3,-578.6 402.3,-887.7z"/>
  <path class="fil0" d="M24889.8 45583.2c-621.7,1009.6 -1127.5,3654 -1967,5330 -3956.8,59.1 -6692.6,-1600.8 -6155.9,-2396.3 826.1,-1224.5 4648.8,1992 5664.1,1841.1 697.4,-103.6 1214.1,-259.6 1459.4,-5171.4 333.1,132.2 666.2,264.4 999.4,396.6z"/>
  <path class="fil0" d="M20604.9 39288.9c1378.8,9852.9 10656.2,9448 8684.6,-2271.8 12996.3,-7816.7 7172.1,-23748.5 -7410.3,-21469.6 -4553.3,711.6 -8875.8,2458.4 -10776.5,5628.9 -1259.9,-3444.4 2423.3,-12059.2 -2578.3,-10574.9 -7087.1,2103.2 -9417.1,8103.3 -8229.3,11441.9 1262.4,3548.4 4094.9,5575.9 8041,5756.4 -861.5,5100.2 4275.5,10764 12268.8,11489.1z"/>
  <path class="fil1" d="M31389.8 20592.6c3345.3,-3444.4 -917.3,-12999.9 2155.3,-11871.4 6768.4,2485.8 8088.6,6563.1 7074.8,10015.3 -1061.2,3613.7 -4395,4368.6 -8341.1,4549.2l-889 -2693.1z"/>
  <path class="fil1" d="M21406 37994.9c1321.5,9222.9 8445.7,9534 6527.9,-1594 13410.7,-8277.2 7168.1,-23342.5 -9173.1,-18705.5 -3629.3,1029.9 -6136.8,3170.3 -7891.9,6047.3 -3345.3,-3444.4 917.3,-12999.9 -2155.3,-11871.4 -6768.4,2485.8 -8088.6,6563.1 -7074.8,10015.3 1061.2,3613.7 4395,4368.6 8341.1,4549.2 -1815.2,5016.2 2572.7,11153.2 11426.2,11559z"/>
  <path class="fil2" d="M22713.9 18834.8c3690.7,0 6683.8,3215.3 6683.8,7180.1 0,3964.8 -2993.1,7180.1 -6683.8,7180.1 -3690.7,0 -6683.7,-3215.3 -6683.7,-7180.1 0,-3964.8 2993,-7180.1 6683.7,-7180.1z"/>
  <path class="fil0" d="M22713.9 17828.3c3940.8,0 7136.7,3215.3 7136.7,7180.1 0,3964.8 -3195.9,7180.1 -7136.7,7180.1 -3940.8,0 -7136.7,-3215.3 -7136.7,-7180.1 0,-3964.8 3195.9,-7180.1 7136.7,-7180.1z"/>
  <ellipse class="fil3" cx="22713.9" cy="25008.4" rx="6125.5" ry="6731.4"/>
  <g id="_2889736251216">
   <path class="fil4" d="M22713.9 18113.4l0.2 0 0 0.6c1739.5,0 3313.6,774 4451.9,2024.9 1134.5,1246.7 1836.4,2968.4 1836.5,4869.1l0.6 0 0 0.4 0 0.2 -0.6 0c-0,1900.8 -702,3622.6 -1836.6,4869.4 -1138.3,1250.9 -2712.2,2024.7 -4451.7,2024.8l0 0.6 -0.3 0 -0.2 0 0 -0.6c-1739.5,-0 -3313.6,-774 -4451.9,-2024.9 -1134.5,-1246.7 -1836.4,-2968.4 -1836.5,-4869.1l-0.6 0 0 -0.4 0 -0.2 0.6 0c0,-1900.8 702,-3622.6 1836.6,-4869.4 1138.3,-1250.9 2712.3,-2024.7 4451.7,-2024.8l0 -0.6 0.3 0zm0.2 326.6l0 0.6 -0.2 0 -0.3 0 0 -0.6c-1642.7,0.1 -3131.4,733.4 -4210,1918.7 -1082.5,1189.5 -1752.2,2833.5 -1752.2,4649.5l0.6 0 0 0.2 0 0.4 -0.6 0c0.1,1815.9 669.7,3459.7 1752.1,4649.2 1078.7,1185.4 2567.5,1918.8 4210.3,1918.8l0 -0.6 0.2 0 0.3 0 0 0.6c1642.7,-0.1 3131.4,-733.4 4210,-1918.7 1082.5,-1189.5 1752.2,-2833.5 1752.2,-4649.5l-0.6 0 0 -0.2 0 -0.4 0.6 0c-0.1,-1815.9 -669.7,-3459.7 -1752.1,-4649.2 -1078.7,-1185.4 -2567.5,-1918.8 -4210.3,-1918.8z"/>
   <polygon class="fil5" points="16833.7,26751.8 18762.6,26197.5 18696,25787.3 16534.3,26363.8 "/>
   <polygon class="fil5" points="20455.3,29558.6 20133.8,29303.7 19258.1,30589.6 19579.5,30833.5 "/>
   <polygon class="fil5" points="24531.3,30158.3 24848.5,30046.4 25158.9,31121.7 24848.5,31332.3 "/>
   <polygon class="fil5" points="28369.2,27379.2 27748.4,27257.3 27826,26880.4 28668.5,27102.1 "/>
   <polygon class="fil5" points="28279.5,22126.9 27625.4,22514.9 27448.1,22215.6 28146.4,21794.3 "/>
   <polygon class="fil5" points="25894.4,19242.1 25177.8,20082.9 24862.5,19810.6 25569.5,19031.9 "/>
   <polygon class="fil5" points="20594.3,18715.9 21478.2,19862.5 21129.4,20120.5 20221.7,18830.6 "/>
   <polygon class="fil5" points="17242.3,21781.4 18208.3,22390.7 18491,22107.3 17468.5,21531 "/>
  </g>
  <path class="fil6" d="M23079.1 21728.8c-1726.5,0 -3126.9,1445.1 -3126.9,3227.1 0,1782.1 1400.4,3227.2 3126.9,3227.2 294.4,0 579.2,-42.1 849.2,-120.7l-849.2 -3106.5 2683.4 1657.1c281.5,-484.5 443.6,-1051.2 443.6,-1657.1 0,-1782 -1400.5,-3227.1 -3127.1,-3227.1z"/>
  <path class="fil0" d="M23079.1 23534.7c-760.4,0 -1377.1,636.4 -1377.1,1421.3 0,784.9 616.7,1421.3 1377.1,1421.3 129.7,0 255.1,-18.6 374,-53.2l-374 -1368.1 1181.8 729.8c124,-213.4 195.4,-463 195.4,-729.8 0,-784.8 -616.8,-1421.3 -1377.2,-1421.3z"/>
  <g id="_2889736188624">
   <path class="fil0" d="M29534.9 31213c-2275.6,6512 -9379.3,9753.2 -12093.2,2254.4 -155.7,-2005.8 4869.9,2071.7 12093.2,-2254.4z"/>
   <path class="fil0" d="M16609.3 35694.2c-419.7,-2761.1 818.7,-3775.9 2376.6,-4504.8 -1562.4,1383.1 -2146.4,2916.8 -2376.6,4504.8z"/>
   <polygon class="fil3" points="22142.8,33827.4 22969.4,36645.6 24964.1,36098.8 24840.1,33681.3 "/>
  </g>
  <ellipse class="fil2" cx="30519.6" cy="19400.1" rx="811.2" ry="881.1"/>
  <circle class="fil2" cx="26772.6" cy="18440" r="434"/>
  <circle class="fil2" cx="8043.2" cy="13111.2" r="409.3"/>
  <ellipse class="fil2" cx="13914.8" cy="20765.2" rx="409.3" ry="269.5"/>
  <ellipse class="fil2" cx="12464.3" cy="26626.5" rx="916.1" ry="748.5"/>
  <ellipse class="fil2" cx="12751.9" cy="24139.3" rx="468.7" ry="418.5"/>
  <ellipse class="fil2" cx="14438.9" cy="25072.6" rx="302.8" ry="270.4"/>
  <path class="fil0" d="M6274.3 20308.7c-493.8,-818.2 -1065.8,-1461.9 -1559.6,-2988.6 -397.2,-1573 1945.5,-1930.1 3314.2,-766.6 1750.6,1488.1 544.5,7057.5 -2261.5,8511.4 -1305.4,184.9 -2053.6,-3874 -2456.1,-10565 584.3,5660.2 1386.7,8848.4 2387.8,9786 1236,-573 2888.2,-3746.7 2370,-6511.1 -206.3,-1100.6 -2558.1,-1487.5 -2682.6,-781.3 -200,1135.3 488,2231.2 887.6,3315.2z"/>
  <path class="fil0" d="M25941 41669.2c476.3,-23.3 862.5,244.9 862.5,598.4 0,353.5 -386.2,659.1 -862.5,682.1 -476.3,23.2 -862.5,-244.9 -862.5,-598.5 0,-353.5 386.2,-659.1 862.5,-682zm0 208.5c321.2,-15.7 581.6,165.1 581.6,403.5 0,238.4 -260.4,444.5 -581.6,460 -321.2,15.6 -581.6,-165.2 -581.6,-403.6 0,-238.4 260.4,-444.5 581.6,-459.9z"/>
  <path class="fil2" d="M9590.4 17183.6c20.2,-254 42.5,-505.5 65.9,-753.1 -51.6,-24.1 -109.1,-37.6 -169.8,-37.6 -221.9,0 -402,180.1 -402,402 0,222.1 180.1,402.1 402,402.1 35.9,0 70.7,-4.7 103.9,-13.5z"/>
  <path class="fil0" d="M36739.2 15675c-493.8,818.2 -1065.8,1461.9 -1559.6,2988.6 -397.2,1573 1945.5,1930.1 3314.2,766.6 1750.6,-1488.1 544.5,-7057.5 -2261.5,-8511.4 -1305.4,-184.9 -2053.6,3874 -2456.1,10565 584.3,-5660.2 1386.7,-8848.4 2387.8,-9786 1236,573 2888.2,3746.7 2370,6511.1 -206.3,1100.6 -2558.1,1487.5 -2682.6,781.3 -200,-1135.3 488,-2231.2 887.6,-3315.2z"/>
  <circle class="fil2" cx="34010.7" cy="11203.1" r="434"/>
  <ellipse class="fil2" cx="36660.2" cy="21622.6" rx="302.8" ry="270.4"/>
  <path class="fil2" d="M32622.7 12367.7c-83.7,477 -77.3,967 4.5,1444.5 142.5,99.1 315.6,157.3 502.4,157.3 486.7,0 881.2,-394.5 881.2,-881.2 0,-486.5 -394.5,-881.1 -881.2,-881.1 -188.7,0 -363.5,59.4 -506.8,160.5z"/>
  <ellipse class="fil2" cx="39862.8" cy="15938.1" rx="409.3" ry="269.5"/>
 </g>
</svg>
