<?xml version="1.0" encoding="UTF-8"?>
<!DOCTYPE svg PUBLIC "-//W3C//DTD SVG 1.1//EN" "http://www.w3.org/Graphics/SVG/1.1/DTD/svg11.dtd">
<!-- Creator: CorelDRAW 2020 (64 Bit) -->
<svg xmlns="http://www.w3.org/2000/svg" xml:space="preserve" width="203.793mm" height="200.983mm" version="1.1" style="shape-rendering:geometricPrecision; text-rendering:geometricPrecision; image-rendering:optimizeQuality; fill-rule:evenodd; clip-rule:evenodd"
viewBox="0 0 48497.7 47829.2"
 xmlns:xlink="http://www.w3.org/1999/xlink"
 xmlns:xodm="http://www.corel.com/coreldraw/odm/2003">
 <defs>
  <style type="text/css">
   <![CDATA[
    .fil3 {fill:#FEFEFE}
    .fil0 {fill:#373435}
    .fil5 {fill:#ED3237}
    .fil1 {fill:#D2E28B}
    .fil2 {fill:#00A859}
    .fil6 {fill:#00A859}
    .fil4 {fill:#ED3237;fill-rule:nonzero}
   ]]>
  </style>
 </defs>
 <g id="Camada_x0020_1">
  <metadata id="CorelCorpID_0Corel-Layer"/>
  <g id="_2889649846288">
   <path class="fil0" d="M28420.6 40796.5c999,694.4 2559.9,2973.8 4037.3,4205.6 3745.6,-1568.3 5864.6,-4252.1 5033.5,-4780.1 -1279.5,-812.7 -3782,3781.2 -4798.8,4056.1 -698.4,188.8 -1248.4,254.2 -3494.8,-4264.7 -259.1,261 -518.1,522.1 -777.2,783.1z"/>
   <path class="fil0" d="M21996.5 36880.2c-3377.6,2898.3 -7043,4212.2 -11103.8,3408.4 -208.6,-1249.4 -2113.5,-6648.3 -3513.4,-5620.5 -861.5,632.5 3067.3,3776.4 2436.8,4350.3 -660.3,716.4 -5981.4,-5045.4 -6609.4,-2804 -436.1,1556.6 6488.8,3333 6088.2,4276.4 -339,798.3 -5615.7,2223.8 -4795.9,3320.8 915.6,1225.2 3385.8,-1782.1 5300,-3092 3902.4,562.4 8015.1,486.7 12863.5,-3093.4 -279.9,-244.8 -386.2,-501.2 -666,-746z"/>
   <path class="fil0" d="M30007.1 35239.2c4404.5,639.1 8203.7,-213.9 11202.8,-3067.3 -492.9,-1166.9 -1775.1,-6746.5 -42.5,-6628.2 1066.3,72.8 -568.2,4831.9 271.5,4978.9 941.2,251.4 2349.8,-7464 4080.5,-5907.3 1201.8,1081 -3695.4,6289.6 -2851.9,6871.8 713.8,492.7 5933.5,-1129 5828.6,236.5 -117.2,1525.1 -3813.7,307.9 -6131.8,226.7 -2994.6,2564.7 -6508.5,4703 -12520.2,4275.7 105.3,-356.6 57.8,-630.1 163,-986.7z"/>
   <path class="fil0" d="M25540.1 42358.4c-637.9,1036 -1156.9,3749.4 -2018.4,5469.3 -4060.2,60.6 -6867.4,-1642.7 -6316.7,-2459 847.7,-1256.5 4770.3,2044 5812.1,1889.2 715.6,-106.3 1245.9,-266.3 1497.5,-5306.5 341.8,135.6 683.7,271.3 1025.5,406.9z"/>
   <path class="fil0" d="M21143.3 35899.6c1414.8,10110.3 10934.6,9694.8 8911.5,-2331.2 13335.9,-8020.9 7737.4,-24110.9 -7240.9,-21869.5 359.2,-1178.2 953.8,-1930.2 2098.3,-4061.6 1232.9,-2296 -134.1,-3498 -2076.6,-3538.9 -8232.6,-173.4 -8660.6,5989.5 -6342.2,9328.3 -2139.2,830.2 -3913.5,1941 -5100.7,3887.1 -1292.8,-3534.3 2486.6,-12374.3 -2645.7,-10851.2 -7272.3,2158.1 -9663.1,8315 -8444.3,11740.8 1295.4,3641.1 4201.9,5721.6 8251.1,5906.8 -884,5233.5 4387.2,11045.2 12589.4,11789.3z"/>
   <path class="fil1" d="M18275.6 13356.8c1004.4,-270.7 2008.8,-541.4 3013.2,-812.1 61.2,-1775 1341.1,-3635.8 2537.7,-5759.3 717.7,-1273.6 -424,-1409.8 -1474.5,-1389.1 -7117.3,140.6 -6652.7,5905.3 -4076.4,7960.4z"/>
   <path class="fil1" d="M21965.3 34571.8c1356.1,9463.8 8666.4,9783.1 6698.4,-1635.6 13761.1,-8493.4 7355.4,-23952.4 -9412.8,-19194.2 -3724.1,1056.8 -6297.1,3253.2 -8098.1,6205.3 -3432.8,-3534.4 941.2,-13339.5 -2211.6,-12181.6 -6945.3,2550.8 -8299.9,6734.6 -7259.6,10277 1089,3708.2 4509.8,4482.8 8559,4668 -1862.6,5147.2 2640,11444.6 11724.7,11861z"/>
   <path class="fil0" d="M7267.2 3036.4c5126.8,1679.8 6976.6,6076.4 7336.9,11708 244.4,10.5 488.8,20.9 733.2,31.4 -793.5,-6810.5 -3485.6,-10803 -7750.8,-12460.6 -106.4,240.4 -212.9,480.8 -319.3,721.2z"/>
   <circle class="fil0" transform="matrix(-1.31902 0.761538 0.761538 1.31902 5759.23 1962.85)" r="1288.5"/>
   <path class="fil0" d="M27346.7 31386.1c-5834.6,4007.6 -13679.5,2379 -11374.8,-5473 1088.3,-1754.2 2772.5,4669.4 11374.8,5473z"/>
   <path class="fil0" d="M13931.9 27250.7c1328.1,-2539.4 2968.7,-2627.7 4700.2,-2285.4 -2132.2,196.4 -3546.1,1111.1 -4700.2,2285.4z"/>
   <path class="fil2" d="M27346.1 14911c3787.1,0 6858.4,3299.3 6858.4,7367.7 0,4068.4 -3071.3,7367.7 -6858.4,7367.7 -3787.1,0 -6858.4,-3299.3 -6858.4,-7367.7 0,-4068.4 3071.2,-7367.7 6858.4,-7367.7z"/>
   <path class="fil0" d="M27346.1 13878.2c4043.8,0 7323.2,3299.3 7323.2,7367.7 0,4068.4 -3279.4,7367.7 -7323.2,7367.7 -4043.8,0 -7323.1,-3299.3 -7323.1,-7367.7 0,-4068.4 3279.4,-7367.7 7323.1,-7367.7z"/>
   <ellipse class="fil3" cx="27346.1" cy="21245.9" rx="6285.6" ry="6907.2"/>
   <path class="fil4" d="M27346.1 14170.8l0.2 0 0 0.7c1785,0 3400.1,794.2 4568.2,2077.8 1164.2,1279.3 1884.4,3045.9 1884.5,4996.3l0.7 0 0 0.4 0 0.2 -0.7 0c-0,1950.4 -720.3,3717.2 -1884.6,4996.6 -1168,1283.6 -2783.1,2077.6 -4568,2077.7l0 0.7 -0.3 0 -0.2 0 0 -0.7c-1785,-0 -3400.1,-794.2 -4568.2,-2077.8 -1164.2,-1279.3 -1884.4,-3045.9 -1884.5,-4996.3l-0.7 0 0 -0.4 0 -0.2 0.7 0c0,-1950.5 720.3,-3717.2 1884.6,-4996.6 1168.1,-1283.6 2783.1,-2077.6 4568,-2077.7l0 -0.7 0.3 0zm0.2 335.2l0 0.7 -0.2 0 -0.3 0 0 -0.7c-1685.6,0.1 -3213.2,752.5 -4320,1968.8 -1110.8,1220.6 -1798,2907.5 -1798,4771l0.7 0 0 0.2 0 0.4 -0.7 0c0.1,1863.4 687.2,3550.1 1797.9,4770.7 1106.9,1216.4 2634.5,1968.9 4320.3,1968.9l0 -0.7 0.2 0 0.3 0 0 0.7c1685.6,-0.1 3213.2,-752.5 4320,-1968.8 1110.8,-1220.6 1798,-2907.5 1798,-4771l-0.7 0 0 -0.2 0 -0.4 0.7 0c-0.1,-1863.4 -687.2,-3550.1 -1797.9,-4770.7 -1106.9,-1216.4 -2634.6,-1968.9 -4320.3,-1968.9z"/>
   <polygon class="fil5" points="21312.2,23034.9 23291.5,22466.2 23223.2,22045.3 21005.1,22636.8 "/>
   <polygon class="fil5" points="25028.5,25915.1 24698.6,25653.5 23799.9,26973 24129.8,27223.2 "/>
   <polygon class="fil5" points="29211,26530.5 29536.4,26415.6 29854.9,27519 29536.4,27735.1 "/>
   <polygon class="fil5" points="33149.2,23678.7 32512.1,23553.6 32591.8,23166.9 33456.3,23394.4 "/>
   <polygon class="fil5" points="33057.1,18289.2 32385.9,18687.3 32203.9,18380.2 32920.6,17947.9 "/>
   <polygon class="fil5" points="30609.7,15329 29874.3,16191.8 29550.8,15912.3 30276.3,15113.3 "/>
   <polygon class="fil5" points="25171.1,14789.1 26078,15965.7 25720.2,16230.4 24788.7,14906.8 "/>
   <polygon class="fil5" points="21731.5,17934.6 22722.8,18559.9 23012.9,18269.1 21963.6,17677.7 "/>
   <path class="fil6" d="M27721 17880.6c1771.6,0 3208.6,1482.9 3208.6,3311.5 0,1828.7 -1436.9,3311.6 -3208.6,3311.6 -302.1,0 -594.3,-43.2 -871.4,-123.8l871.4 -3187.7 -2753.5 1700.4c-288.9,-497.1 -455.2,-1078.7 -455.2,-1700.4 0,-1828.6 1437,-3311.5 3208.8,-3311.5z"/>
   <path class="fil0" d="M27721 19733.7c780.3,0 1413.1,653.1 1413.1,1458.4 0,805.4 -632.8,1458.5 -1413.1,1458.5 -133.1,0 -261.7,-19.1 -383.8,-54.6l383.8 -1403.9 -1212.6 748.8c-127.2,-218.9 -200.5,-475 -200.5,-748.9 0,-805.3 632.9,-1458.4 1413.2,-1458.4z"/>
   <polygon class="fil3" points="19643.5,29063.7 18617.3,31897.3 20599.7,32655.2 21964,30579.6 "/>
   <circle class="fil1" transform="matrix(-0.866025 0.5 0.5 0.866025 5759.23 1962.85)" r="1288.5"/>
   <ellipse class="fil2" cx="16806.7" cy="18287.4" rx="832.4" ry="904.2"/>
   <circle class="fil2" cx="18929.9" cy="15195.8" r="445.3"/>
   <circle class="fil2" cx="19467.9" cy="7019" r="445.3"/>
   <circle class="fil2" cx="8253.3" cy="9037.9" r="420"/>
   <ellipse class="fil2" cx="14278.3" cy="16891.9" rx="420" ry="276.6"/>
   <ellipse class="fil2" cx="12790" cy="22906.3" rx="940" ry="768.1"/>
   <ellipse class="fil2" cx="13085.1" cy="20354.2" rx="480.9" ry="429.5"/>
   <ellipse class="fil2" cx="14816.2" cy="21311.9" rx="310.8" ry="277.5"/>
   <ellipse class="fil2" cx="19478.3" cy="8831.5" rx="310.8" ry="277.5"/>
   <path class="fil0" d="M6036.2 15348.5c506.7,839.6 1093.6,1500.1 1600.3,3066.7 407.6,1614.1 -1996.4,1980.5 -3400.8,786.6 -1796.3,-1527 -558.7,-7241.9 2320.5,-8733.8 1339.5,-189.7 2107.2,3975.2 2520.2,10841 -599.6,-5808.1 -1423,-9079.6 -2450.2,-10041.7 -1268.3,587.9 -2963.7,3844.5 -2431.9,6681.2 211.7,1129.3 2625,1526.4 2752.6,801.7 205.3,-1164.9 -500.8,-2289.5 -910.8,-3401.8z"/>
   <path class="fil0" d="M26618.7 38342.1c488.7,-23.9 885.1,251.3 885.1,614 0,362.7 -396.3,676.4 -885.1,699.9 -488.7,23.8 -885.1,-251.3 -885.1,-614.1 0,-362.7 396.3,-676.4 885.1,-699.8zm0 213.9c329.6,-16.1 596.8,169.4 596.8,414.1 0,244.6 -267.2,456.1 -596.8,472 -329.6,16 -596.8,-169.5 -596.8,-414.1 0,-244.6 267.2,-456.1 596.8,-471.9z"/>
   <path class="fil2" d="M16609.3 8976.6c-85.9,489.5 -79.3,992.2 4.6,1482.3 146.3,101.7 323.9,161.4 515.5,161.4 499.4,0 904.2,-404.8 904.2,-904.2 0,-499.2 -404.8,-904.1 -904.2,-904.1 -193.6,0 -373,61 -520.1,164.7z"/>
   <path class="fil2" d="M9841 13216.7c20.7,-260.7 43.6,-518.7 67.7,-772.8 -52.9,-24.7 -112,-38.6 -174.2,-38.6 -227.7,0 -412.5,184.8 -412.5,412.5 0,227.9 184.8,412.7 412.5,412.7 36.8,0 72.6,-4.8 106.6,-13.9z"/>
   <circle class="fil2" transform="matrix(-0.29929 0.172795 0.172795 0.29929 5508.51 1171.95)" r="1288.5"/>
  </g>
 </g>
</svg>
