<?xml version="1.0" encoding="UTF-8"?>
<!DOCTYPE svg PUBLIC "-//W3C//DTD SVG 1.1//EN" "http://www.w3.org/Graphics/SVG/1.1/DTD/svg11.dtd">
<!-- Creator: CorelDRAW 2020 (64 Bit) -->
<svg xmlns="http://www.w3.org/2000/svg" xml:space="preserve" width="50mm" height="14.5087mm" version="1.1" style="shape-rendering:geometricPrecision; text-rendering:geometricPrecision; image-rendering:optimizeQuality; fill-rule:evenodd; clip-rule:evenodd"
viewBox="0 0 13166.8 3820.7"
 xmlns:xlink="http://www.w3.org/1999/xlink"
 xmlns:xodm="http://www.corel.com/coreldraw/odm/2003">
 <defs>
  <style type="text/css">
    .white {fill:white}
    .green {fill:#00E676}
  </style>
 </defs>
 <g id="Camada_x0020_1">
  <metadata id="CorelCorpID_0Corel-Layer"/>
  <g>
   <path class="white" d="M11477.5 2690.5l188.1 0 0 -726.2 -564.4 0 0 220.1 297.2 0c-16.9,186.3 -127.9,289.7 -319.8,289.7 -265.2,0 -364.9,-225.7 -364.9,-449.6 0,-235.1 99.7,-460.9 364.9,-460.9 139.2,0 250.2,77.1 284.1,225.7l282.2 0c-32,-304.8 -291.6,-474 -566.3,-474 -415.7,0 -660.3,310.4 -660.3,709.2 0,387.6 244.6,697.9 660.3,697.9 129.8,0 265.2,-50.8 368.7,-184.4l30.1 152.4zm-9567.2 -2690.5c1055,0 1910.3,855.3 1910.3,1910.3 0,1055 -855.3,1910.3 -1910.3,1910.3 -347.4,0 -673.1,-92.8 -953.7,-254.8l-956.6 254.8 254.8 -956.6c-162.1,-280.7 -254.8,-606.4 -254.8,-953.7 0,-1055 855.3,-1910.3 1910.3,-1910.3zm3830.4 2347.3l-10.4 0 -281.4 -1042.3 -218.9 0 -271 1042.3 -10.4 0 -239.7 -1042.3 -260.6 0 375.2 1396.7 239.7 0 281.4 -990.2 10.4 0 281.4 990.2 229.3 0 364.8 -1386.3 -250.1 0 -239.8 1031.9zm1271.6 -729.6c-126.1,0 -283.7,63 -333.6,187.6l-20.8 0 0 -573.3 -239.8 0 0 1469.6 239.8 0 0 -614.9c0,-154.1 106.5,-260.6 260.6,-260.6 134.5,0 218.8,73.9 218.8,239.8l0 625.4 250.2 0 0 -677.5c0,-259.4 -149.5,-396.1 -375.2,-396.1l0 0zm1042.3 0c-107.5,0 -218.9,20.8 -312.7,83.4 -73,52.1 -125.1,135.5 -135.5,218.9 76.5,0 152.9,0 229.4,0 50.3,-150.7 406.5,-173.8 406.5,52.1l0 93.8c-192.9,14.9 -411.1,1.9 -573.3,114.6 -142.9,99.4 -134.5,346.1 -10.4,458.6 116.5,105.6 300.4,114.1 437.8,41.7 53.8,-28.3 93.8,-73 125.1,-114.6l20.8 0 0 145.9 229.3 0c0,-243.2 0,-486.4 0,-729.6 0,-238.6 -181.6,-364.8 -416.9,-364.8l0 0zm187.6 698.4c0,136.9 -123.3,218.9 -250.2,218.9 -88.6,0 -187.6,-44.6 -187.6,-145.9 0,-83.4 62.6,-135.5 198,-145.9l239.7 -10.4 0 83.4 0 0zm792.2 -927.7l-239.8 0 0 260.6 -177.2 -0 0 187.6 177.2 0 0 573.3c0,273.8 271.9,320.4 469.1,271l0 -177.2c-31.3,0 -52.1,0 -83.4,0 -85.9,0 -145.9,-31.4 -145.9,-145.9l0 -521.1 229.3 0 0 -187.6 -229.3 0c0,0 0,-260.6 0,-260.6zm958.9 708.7c-90.1,-20 -344,-50.3 -344,-166.8 0,-159.7 340.1,-182 385.7,0l229.3 0c0,-217.9 -242.4,-312.7 -427.3,-312.7 -192.3,0 -416.9,103.2 -416.9,323.1 0,170.5 173.6,271 302.3,291.9 128.7,20.9 333.6,42.2 333.6,166.8 0,94.2 -115.9,132.7 -198,125.1 -82.1,-7.6 -194.8,-28.8 -218.9,-125.1l-239.8 0c0,225.1 260.3,312.7 448.2,312.7 213.2,0 448.2,-98.6 448.2,-344 0,-180 -142.2,-248.1 -302.3,-271l0 0zm1852.9 -72.6c0,387.6 244.6,697.9 660.3,697.9 415.7,0 660.3,-310.4 660.3,-697.9 0,-398.8 -244.6,-709.2 -660.3,-709.2 -415.7,0 -660.3,310.4 -660.3,709.2zm295.3 0c0,-235.1 99.7,-460.9 364.9,-460.9 265.2,0 364.9,225.7 364.9,460.9 0,223.9 -99.7,449.6 -364.9,449.6 -265.2,0 -364.9,-225.7 -364.9,-449.6z"/>
  </g>
  <path class="green" d="M11629.6 3056c71.5,0 129.6,58 129.6,129.6 0,71.6 -58.1,129.6 -129.6,129.6 -71.6,0 -129.6,-58.1 -129.6,-129.6 0,-71.6 58,-129.6 129.6,-129.6zm-9719.3 -2727.3c873.4,0 1581.5,708.1 1581.5,1581.6 0,873.4 -708.1,1581.5 -1581.5,1581.5 -287.6,0 -557.3,-76.8 -789.7,-211l-791.9 211 211 -791.9c-134.1,-232.3 -211,-502 -211,-789.6 0,-873.4 708.1,-1581.6 1581.6,-1581.6zm201.5 993.8c0,0 0,-0 0,-0.1 0,-64.3 77.9,-95.2 122.4,-50.7l534.8 535.3c27.9,27.9 27.9,73.5 0,101.4l-534.8 535.3c-44.5,44.4 -122.4,13.6 -122.4,-50.8 0,-0 0,-0.1 0,-0.1l0 -241.7c-450.9,0 -781.2,128.7 -1026.6,408 -21.8,24.7 -62.1,3.7 -53.3,-27.9 126.7,-457.7 435.8,-885.1 1079.9,-977.2l0 -231.4 0 0zm10981.1 1860.1c0,83 -32.1,164.4 -127.4,164.4 -96.1,0 -133.9,-77.3 -133.9,-161.1 0,-79.7 36.2,-160.2 129.8,-160.2 90.4,0 131.5,77.2 131.5,156.9zm-328.7 378.8l69.8 0 0 -219.4 1.6 0c31.2,50.1 93.7,66.5 137.2,66.5 129.8,0 193.9,-101 193.9,-221 0,-120 -64.9,-223.5 -195.6,-223.5 -58.3,0 -112.5,20.6 -135.6,67.4l-1.6 0 0 -57.6 -69.8 0 0 587.6zm-158.6 -378.8c0,83 -32.1,164.4 -127.4,164.4 -96.1,0 -133.9,-77.3 -133.9,-161.1 0,-79.7 36.2,-160.2 129.8,-160.2 90.4,0 131.5,77.2 131.5,156.9zm-328.7 378.8l69.8 0 0 -219.4 1.6 0c31.2,50.1 93.7,66.5 137.2,66.5 129.8,0 193.9,-101 193.9,-221 0,-120 -64.9,-223.5 -195.6,-223.5 -58.3,0 -112.5,20.6 -135.6,67.4l-1.6 0 0 -57.6 -69.8 0 0 587.6zm-180.8 -310.6c0,38.6 -37.8,96.2 -129.8,96.2 -42.7,0 -82.2,-16.4 -82.2,-62.5 0,-51.8 39.5,-68.2 85.5,-76.4 46.8,-8.2 99.4,-9 126.5,-28.8l0 71.5zm113.4 92.1c-9.1,3.3 -15.6,4.1 -21.4,4.1 -22.2,0 -22.2,-14.8 -22.2,-47.7l0 -218.6c0,-99.4 -83,-116.7 -159.4,-116.7 -94.5,0 -175.9,37 -180,142.2l69.8 0c3.3,-62.5 46.8,-80.5 106,-80.5 44.4,0 94.5,9.8 94.5,70.7 0,52.6 -65.7,47.6 -143,62.4 -72.3,14 -143.8,34.5 -143.8,130.7 0,84.6 63.3,119.1 140.5,119.1 59.2,0 110.9,-20.5 149.6,-65.7 0,46 23,65.7 59.1,65.7 22.2,0 37.8,-4.1 50.1,-11.5l0 -54.2z"/>
 </g>
</svg>
